<?xml version="1.0" encoding="UTF-8" standalone="no"?>
<!-- Created with Inkscape (http://www.inkscape.org/) -->

<svg
   xmlns:dc="http://purl.org/dc/elements/1.1/"
   xmlns:cc="http://creativecommons.org/ns#"
   xmlns:rdf="http://www.w3.org/1999/02/22-rdf-syntax-ns#"
   xmlns:svg="http://www.w3.org/2000/svg"
   xmlns="http://www.w3.org/2000/svg"
   xmlns:sodipodi="http://sodipodi.sourceforge.net/DTD/sodipodi-0.dtd"
   xmlns:inkscape="http://www.inkscape.org/namespaces/inkscape"
   width="150mm"
   height="150mm"
   viewBox="0 0 150 150"
   version="1.1"
   id="svg30"
   inkscape:version="0.92.1 r15371"
   sodipodi:docname="intelephant.svg">
  <defs
     id="defs24" />
  <sodipodi:namedview
     id="base"
     pagecolor="#ffffff"
     bordercolor="#666666"
     borderopacity="1.0"
     inkscape:pageopacity="0.0"
     inkscape:pageshadow="2"
     inkscape:zoom="0.7"
     inkscape:cx="685.71429"
     inkscape:cy="560"
     inkscape:document-units="mm"
     inkscape:current-layer="layer1"
     showgrid="false"
     inkscape:window-width="1920"
     inkscape:window-height="1016"
     inkscape:window-x="0"
     inkscape:window-y="27"
     inkscape:window-maximized="1"
     units="mm" />
  <metadata
     id="metadata27">
    <rdf:RDF>
      <cc:Work
         rdf:about="">
        <dc:format>image/svg+xml</dc:format>
        <dc:type
           rdf:resource="http://purl.org/dc/dcmitype/StillImage" />
        <dc:title></dc:title>
      </cc:Work>
    </rdf:RDF>
  </metadata>
  <g
     inkscape:label="Layer 1"
     inkscape:groupmode="layer"
     id="layer1"
     transform="translate(0,-147)">
    <path
       inkscape:connector-curvature="0"
       id="rect105-3"
       d="m 104.55744,252.83218 c 7.21991,2.1019 15.0259,4.764 21.8962,1.40535 7.81193,-3.02347 12.10938,-11.14135 12.97836,-19.62254 1.89458,-10.7831 4.07476,-21.49559 5.77946,-32.32566 1.30967,-12.24406 -8.31645,-24.95646 -20.16782,-27.15834 -6.99583,-2.22066 -14.67859,-4.04281 -21.14071,-0.48337 -7.294087,3.26671 -11.141337,11.08711 -12.013487,19.18382 -1.8946,10.7831 -4.07477,21.49559 -5.77947,32.32567 -1.15347,11.6242 7.24278,23.76452 18.447467,26.67507 z"
       style="fill:#93a7ac;fill-opacity:1;stroke-width:0.44481951" />
    <path
       inkscape:connector-curvature="0"
       id="rect105"
       d="m 23.481542,175.42526 c 7.219911,-2.1019 15.025908,-4.764 21.896202,-1.40536 7.811938,3.02347 12.109378,11.14135 12.978358,19.62254 1.894591,10.78311 4.074761,21.4956 5.779468,32.32567 1.309667,12.24406 -8.316455,24.95647 -20.16782,27.15834 -6.995833,2.22067 -14.678594,4.04281 -21.140712,0.48338 C 15.532943,250.34312 11.685701,242.52272 10.813542,234.426 8.918951,223.64289 6.73878,212.9304 5.034074,202.10033 3.880611,190.47612 12.276853,178.33582 23.481542,175.42526 Z"
       style="fill:#93a7ac;fill-opacity:1;stroke-width:0.44481951" />
    <path
       inkscape:connector-curvature="0"
       id="rect122"
       d="m 29.898277,181.65625 c 13.440306,-4.24374 26.217695,6.77626 28.516126,19.88789 2.039648,9.74768 4.609032,19.3574 6.233182,29.21353 1.585085,12.60717 -6.59911,27.65754 -19.629042,29.83515 -13.321939,2.48373 -24.607944,-8.99421 -26.485338,-21.85581 -1.938989,-9.28209 -4.397564,-18.42891 -5.922454,-27.81908 -1.313219,-11.83765 5.350914,-25.73624 17.287526,-29.26168 z"
       style="fill:#c8b7b7;fill-opacity:1;stroke-width:0.67965794" />
    <path
       inkscape:connector-curvature="0"
       id="rect122-5"
       d="m 102.26758,256.96563 c 13.42519,4.09031 27.42291,-6.18332 29.71868,-19.62189 2.056,-9.03363 4.66161,-17.93965 6.28645,-27.07369 1.73603,-13.1221 -8.14629,-27.36833 -21.54872,-28.54398 -12.86564,-1.65546 -24.416937,8.83499 -26.334737,21.37791 -1.97427,8.68639 -4.4897,17.24719 -6.03397,26.03372 -1.40527,11.86539 6.12711,24.72174 17.912297,27.82793 z"
       style="fill:#c8b7b7;fill-opacity:1;stroke-width:0.67466831" />
    <path
       inkscape:connector-curvature="0"
       id="path32"
       d="m 75.217263,166.5981 c -40.382559,-1.32505 -71.532316,43.2896 -58.488442,80.98554 4.018579,10.40453 9.743164,24.67393 20.473414,29.00545 25.912996,0 51.825988,0 77.738985,0 31.0369,-25.26342 27.54636,-79.18816 -6.64012,-100.0808 -9.756217,-6.42199 -21.401507,-9.93087 -33.083837,-9.91019 z"
       style="fill:#b7c4c8;fill-opacity:1;stroke-width:0.27497566" />
    <path
       inkscape:connector-curvature="0"
       id="path39"
       d="m 65.19549,211.97625 c 0.450423,12.01683 -12.692331,21.6369 -24.015059,17.67373 -11.597767,-3.10019 -16.987131,-18.47389 -9.821188,-28.11961 6.421075,-10.15741 22.696944,-10.73087 29.819778,-1.0539 2.586035,3.23496 4.026901,7.35856 4.016469,11.49978 z"
       style="fill:#ffffff;fill-opacity:1;stroke-width:0.27304015" />
    <path
       inkscape:connector-curvature="0"
       id="path39-3"
       d="m 122.49672,211.86285 c 0.45042,12.01683 -12.69233,21.6369 -24.015063,17.67372 -11.59777,-3.10019 -16.98713,-18.47388 -9.82119,-28.11961 6.42107,-10.15741 22.696943,-10.73086 29.819783,-1.0539 2.58603,3.23497 4.0269,7.35856 4.01647,11.49979 z"
       style="fill:#ffffff;fill-opacity:1;stroke-width:0.27304021" />
    <path
       inkscape:connector-curvature="0"
       id="rect88"
       d="m 26.458329,267.51785 c 11.465277,0 22.930554,0 34.395832,0 0,3.02381 0,6.04762 0,9.07142 -11.465278,0 -22.930555,0 -34.395832,0 0,-3.0238 0,-6.04761 0,-9.07142 z"
       style="fill:#916f6f;fill-opacity:1;stroke-width:0.31915265" />
    <path
       inkscape:connector-curvature="0"
       id="rect88-5"
       d="m 89.353591,267.51785 c 11.465279,0 22.930569,0 34.395849,0 0,3.02381 0,6.04762 0,9.07142 -11.46528,0 -22.93057,0 -34.395849,0 0,-3.0238 0,-6.04761 0,-9.07142 z"
       style="fill:#916f6f;fill-opacity:1;stroke-width:0.31915265" />
    <path
       inkscape:connector-curvature="0"
       id="path141"
       d="m 62.218248,235.73818 c -10.129502,13.71562 -29.120961,17.83501 -44.996596,13.44763 7.706847,5.53586 16.957293,8.64412 26.457255,8.68116 8.104514,0.23827 18.680707,-0.50289 22.696475,-8.81343 2.280205,-4.74815 -0.451309,-10.16832 -4.157134,-13.31536 z"
       style="fill:#ffffff;stroke:#ffffff;stroke-width:0.24750727px;stroke-linecap:butt;stroke-linejoin:miter;stroke-opacity:1" />
    <path
       inkscape:connector-curvature="0"
       id="path141-2"
       d="m 88.878603,235.2894 c 10.1295,13.71562 29.120957,17.83501 44.996597,13.44763 -7.70685,5.53586 -16.95729,8.64412 -26.45726,8.68116 -8.104507,0.23827 -18.680697,-0.50289 -22.696467,-8.81343 -2.28021,-4.74815 0.45131,-10.16832 4.15713,-13.31536 z"
       style="fill:#ffffff;stroke:#ffffff;stroke-width:0.24750727px;stroke-linecap:butt;stroke-linejoin:miter;stroke-opacity:1" />
    <path
       inkscape:connector-curvature="0"
       id="rect37"
       d="m 59.795828,198.72617 c 10.205357,0 20.410715,0 30.616069,0 0,25.95437 0,51.90873 0,77.8631 -10.205354,0 -20.410712,0 -30.616069,0 0,-25.95437 0,-51.90873 0,-77.8631 z"
       style="fill:#93a7ac;fill-opacity:1;stroke-width:0.27490968" />
    <path
       inkscape:connector-curvature="0"
       id="path56"
       d="m 45.285717,204.35609 c 0.264768,4.55964 -6.677694,6.22844 -8.510433,2.04118 -2.265366,-3.87996 2.992291,-8.5058 6.551324,-5.75519 1.212824,0.81754 1.969082,2.25151 1.959109,3.71401 z"
       style="fill:#000000;fill-opacity:1;stroke-width:0.34066498" />
    <path
       inkscape:connector-curvature="0"
       id="path56-7"
       d="m 115.28692,217.6986 c 0.26477,4.55965 -6.67769,6.22844 -8.51043,2.04118 -2.26536,-3.87996 2.99229,-8.50579 6.55133,-5.75519 1.21282,0.81755 1.96908,2.25151 1.9591,3.71401 z"
       style="fill:#000000;fill-opacity:1;stroke-width:0.34066498" />
  </g>
</svg>
